<svg xmlns="http://www.w3.org/2000/svg" width="513.158" height="445.366" viewBox="0 0 513.158 445.366">
  <g id="undraw_security_re_a2rk" transform="translate(0.04)">
    <path id="Path_371" data-name="Path 371" d="M849.764,666.935l13.822-4.384a46.788,46.788,0,0,0-.333-22.509c-5.553,12.347-21.845,15.372-31.128,25.227a28.143,28.143,0,0,0-7.2,23.307l-2.908,9.865a47.158,47.158,0,0,0,34.321-19.523,45.549,45.549,0,0,0,5.337-10.1C855.783,668.224,849.764,666.935,849.764,666.935Z" transform="translate(-374.679 -254.174)" fill="#f2f2f2"/>
    <path id="Path_372" data-name="Path 372" d="M834.214,645.133l10.416-10.089a46.786,46.786,0,0,0-10.337-20c.536,13.528-12.7,23.5-16.61,36.462a28.142,28.142,0,0,0,3.951,24.071l1.8,10.126a47.158,47.158,0,0,0,22.012-32.781,45.547,45.547,0,0,0,.271-11.424C840.175,643.6,834.214,645.133,834.214,645.133Z" transform="translate(-373.899 -250.612)" fill="#f2f2f2"/>
    <path id="Path_373" data-name="Path 373" d="M691.419,224.029H301.855a1.549,1.549,0,1,1,0-3.1H691.419a1.549,1.549,0,1,1,0,3.1Z" transform="translate(-300.345 -194.458)" fill="#3f3d56"/>
    <ellipse id="Ellipse_58" data-name="Ellipse 58" cx="9.079" cy="9.281" rx="9.079" ry="9.281" transform="translate(18.949 0)" fill="#3f3d56"/>
    <ellipse id="Ellipse_59" data-name="Ellipse 59" cx="9.079" cy="9.281" rx="9.079" ry="9.281" transform="translate(50.313 0)" fill="#3f3d56"/>
    <ellipse id="Ellipse_60" data-name="Ellipse 60" cx="9.079" cy="9.281" rx="9.079" ry="9.281" transform="translate(81.677 0)" fill="#3f3d56"/>
    <path id="Path_374" data-name="Path 374" d="M730.4,192.742H708.123a1.687,1.687,0,1,0,0,3.374H730.4a1.687,1.687,0,1,0,0-3.374Z" transform="translate(-358.211 -190.442)" fill="#3f3d56"/>
    <path id="Path_375" data-name="Path 375" d="M730.4,200.126H708.123a1.687,1.687,0,1,0,0,3.374H730.4a1.687,1.687,0,1,0,0-3.374Z" transform="translate(-358.211 -191.494)" fill="#3f3d56"/>
    <path id="Path_376" data-name="Path 376" d="M730.4,207.5H708.123a1.687,1.687,0,1,0,0,3.374H730.4a1.687,1.687,0,1,0,0-3.374Z" transform="translate(-358.211 -192.544)" fill="#3f3d56"/>
    <circle id="Ellipse_61" data-name="Ellipse 61" cx="11.224" cy="11.224" r="11.224" transform="translate(18.949 70.064)" fill="#e6e7e8"/>
    <path id="Path_377" data-name="Path 377" d="M619.5,312.728H325.792a3.342,3.342,0,0,1,0-6.685H619.5a3.342,3.342,0,1,1,0,6.685Z" transform="translate(-303.5 -206.585)" fill="#e6e7e8"/>
    <path id="Path_378" data-name="Path 378" d="M542.472,328.13H325.792a3.343,3.343,0,0,1,0-6.685h216.68a3.343,3.343,0,1,1,0,6.685Z" transform="translate(-303.5 -208.779)" fill="#e6e7e8"/>
    <circle id="Ellipse_62" data-name="Ellipse 62" cx="11.224" cy="11.224" r="11.224" transform="translate(18.949 245.259)" fill="#e6e7e8"/>
    <path id="Path_379" data-name="Path 379" d="M619.5,517.033H325.792a3.342,3.342,0,0,1,0-6.685H619.5a3.738,3.738,0,0,1,3.528,3.6,3.3,3.3,0,0,1-3.528,3.085Z" transform="translate(-303.5 -235.695)" fill="#e6e7e8"/>
    <path id="Path_380" data-name="Path 380" d="M542.472,532.435H325.792a3.343,3.343,0,1,1,0-6.685h216.68a3.343,3.343,0,1,1,0,6.685Z" transform="translate(-303.5 -237.889)" fill="#e6e7e8"/>
    <circle id="Ellipse_63" data-name="Ellipse 63" cx="11.224" cy="11.224" r="11.224" transform="translate(18.949 151.058)" fill="#e6e7e8"/>
    <path id="Path_381" data-name="Path 381" d="M619.5,407.179H325.792a3.342,3.342,0,0,1,0-6.685H619.5a3.342,3.342,0,1,1,0,6.685Z" transform="translate(-303.5 -220.042)" fill="#e6e7e8"/>
    <path id="Path_382" data-name="Path 382" d="M578.6,422.581H325.792a3.343,3.343,0,0,1,0-6.685H578.6a3.343,3.343,0,1,1,0,6.685Z" transform="translate(-303.5 -222.237)" fill="#e6e7e8"/>
    <path id="Path_383" data-name="Path 383" d="M561.443,437.983H325.792a3.343,3.343,0,1,1,0-6.685H561.443a3.343,3.343,0,1,1,0,6.685Z" transform="translate(-303.5 -224.431)" fill="#e6e7e8"/>
    <circle id="Ellipse_64" data-name="Ellipse 64" cx="83.122" cy="83.122" r="83.122" transform="translate(179.697 195.075)" fill="#1c6641"/>
    <circle id="Ellipse_65" data-name="Ellipse 65" cx="11.875" cy="11.875" r="11.875" transform="translate(250.83 283.449)" fill="#3f3d56"/>
    <circle id="Ellipse_66" data-name="Ellipse 66" cx="5.481" cy="5.481" r="5.481" transform="translate(257.224 289.843)" fill="#1c6641"/>
    <path id="Path_384" data-name="Path 384" d="M622.4,556.494H578.546a16.4,16.4,0,0,1-16.38-16.379V520.006a16.4,16.4,0,0,1,16.38-16.38H622.4a16.4,16.4,0,0,1,16.38,16.38v20.108A16.4,16.4,0,0,1,622.4,556.494Zm-43.857-51.152a14.682,14.682,0,0,0-14.665,14.665v20.108a14.681,14.681,0,0,0,14.665,14.664H622.4a14.681,14.681,0,0,0,14.664-14.664V520.006A14.681,14.681,0,0,0,622.4,505.341Z" transform="translate(-337.655 -234.737)" fill="#fff"/>
    <path id="Path_385" data-name="Path 385" d="M576.7,546.29h38.927A15.386,15.386,0,0,0,631.011,530.9V514.076A15.317,15.317,0,0,0,630,508.618a15.345,15.345,0,0,1,6.115,12.258V537.7a15.386,15.386,0,0,1-15.386,15.386H581.8a15.378,15.378,0,0,1-14.371-9.928A15.3,15.3,0,0,0,576.7,546.29Z" transform="translate(-338.405 -235.448)" fill="#3f3d56"/>
    <path id="Path_386" data-name="Path 386" d="M414.564,500.411H405l-4.551-36.9h14.118Z" transform="translate(-57.062 -66.042)" fill="#a0616a"/>
    <path id="Path_387" data-name="Path 387" d="M712.759,705.6H683.344v-.372a11.45,11.45,0,0,1,11.448-11.449h0l5.373-4.076,10.025,4.077h2.568Z" transform="translate(-354.921 -261.249)" fill="#2f2e41"/>
    <path id="Path_388" data-name="Path 388" d="M495.838,500.411H505.4l4.551-36.9H495.836Z" transform="translate(-70.653 -66.042)" fill="#a0616a"/>
    <path id="Path_389" data-name="Path 389" d="M795.79,705.6h29.415v-.372a11.45,11.45,0,0,0-11.448-11.449h0l-5.373-4.076-10.025,4.077H795.79Z" transform="translate(-370.942 -261.249)" fill="#2f2e41"/>
    <path id="Path_390" data-name="Path 390" d="M700.3,601.837c.141-2.105,1.265-13.748,1.265-13.748l2.69-24.692L709,497.944l.309-4.285,24.84-4.769,16.977-8.139L771.3,487.2l15.712,5.892s.027,2.522.148,5.569c.161,3.989.444,8.879,1.117,10.15,1.123,2.247.841,14.307.841,14.307s1.117,24.537,2.522,27.228,1.688,8.293,1.265,9.417,1.406,30.591,1.406,30.591,4.7,52.146,1.75,60.009-14.079,2.712-14.079,2.712.538-2.1-2.69-3.087-13.062-74.93-13.062-74.93-1.829-15.161-3.511-19.506S759.49,539,759.49,539,749.1,518.8,748.97,514.3c0,0-1.359-4.2-2.643.424s-5.072,15.712-5.072,15.712l-3.693,13.614-4.345,20.34-2.812,17.125s-4.211,22.728-4.883,23.71,0,21.746,0,21.746-3.255,17.683-7.856,20.771-16.79.049-16.79.049S700.157,603.942,700.3,601.837Z" transform="translate(-357.334 -231.478)" fill="#2f2e41"/>
    <path id="Path_391" data-name="Path 391" d="M411.272,225.22l5.522,16.634-6.814,8.111,3,3.088-2.213,4.365L405,303.17l31.64,12,10.655-13.358,8.4,13.358,36.611-8.946-9.337-58.343v-3.814l-2.636-7.365V221.11l6.961-46.411-20.778-7.278-9.934-7.863-3.215,11.058-13.688-2.434-.357-8.308-10.473,9.895-8.819,2.515L409.47,174.7l-1.345,3.363,2.69-.672-.436,43.754Z" transform="translate(-57.71 -22.734)" fill="#2f2e41"/>
    <path id="Path_392" data-name="Path 392" d="M699.626,484.653l5.314-51.436,1.4-21.169-14.873-2.69s.589,15.137-1.359,23.677c-1.923,8.427-.255,50.488-.136,51.613a7.236,7.236,0,1,0,9.652,0Z" transform="translate(-355.522 -221.306)" fill="#a0616a"/>
    <path id="Path_393" data-name="Path 393" d="M684.527,437.478l4.137.854,14.192,2.939.787.161,1.675-6.659,1.944-2.072,3.7-19.385.2-1.009,5.589-11.946,3.867-35.9-14.381,2.583c-.074.074-.141.155-.209.235-2.065,2.341-3.538,5.6-5.946,8.872-7.836,10.661-13.849,36.564-13.613,50.756.007.229-.229.478-.511.733a7.872,7.872,0,0,0-1.426,9.84Z" transform="translate(-354.93 -214.908)" fill="#2f2e41"/>
    <path id="Path_394" data-name="Path 394" d="M808.337,484.653l-5.314-51.436-1.4-21.169,14.873-2.689s-.589,15.137,1.359,23.677c1.923,8.427.255,50.488.136,51.613a7.236,7.236,0,1,1-9.652,0Z" transform="translate(-371.773 -221.306)" fill="#a0616a"/>
    <path id="Path_395" data-name="Path 395" d="M821.019,437.478l-4.137.854-14.192,2.939-.787.161-1.675-6.659-1.944-2.072-3.7-19.385-.2-1.009L788.8,400.363l1.278-35.9,9.235,2.583c.074.074.141.155.208.235,2.065,2.341,3.538,5.6,5.946,8.872,7.836,10.661,13.849,36.564,13.613,50.756-.007.229.229.478.511.733A7.872,7.872,0,0,1,821.019,437.478Z" transform="translate(-369.946 -214.908)" fill="#2f2e41"/>
    <path id="Path_396" data-name="Path 396" d="M735.478,367.657l6.757-17.722,17.259-.316,5.727,18.038,20.585,115s-63.065,17.563-62.426-3.548c.673-22.2,3.707-51.681,3.707-51.681Z" transform="translate(-360.625 -212.794)" fill="#1c6641"/>
    <circle id="Ellipse_67" data-name="Ellipse 67" cx="20.332" cy="20.332" r="20.332" transform="translate(369.522 91.52)" fill="#a0616a"/>
    <path id="Path_397" data-name="Path 397" d="M729.656,301.052c3.31-3.6,7.45-10.2,19.991-12.967,15.5-3.422,22.818,10.576,18.91,10.806,11.427,3.46,4.086,27.107.81,25.124a.955.955,0,0,1-.081-.063,16.1,16.1,0,0,1-6.429-10.982l-.622-5.6c-.089,4.553-4.742,5.155-9.5,3.478a5.964,5.964,0,0,1,4.214-4.149,20.4,20.4,0,0,1-11.981,5.213,8.156,8.156,0,0,1,3.966-5.457l-.188-.184a19.6,19.6,0,0,1-6.286,3.559c-2.621.751-5.761.345-7.556-1.707a5.575,5.575,0,0,1-1.074-1.933c.388,3.606-2.03,7.721-3.909,7.015C728.364,312.9,727.452,303.45,729.656,301.052Z" transform="translate(-361.333 -203.95)" fill="#2f2e41"/>
    <path id="Path_398" data-name="Path 398" d="M858.452,708.065a1.017,1.017,0,0,1-1.02,1.02H617.077a1.02,1.02,0,0,1,0-2.041H857.431a1.017,1.017,0,0,1,1.02,1.02Z" transform="translate(-345.334 -263.72)" fill="#ccc"/>
    <path id="Path_399" data-name="Path 399" d="M604.416,461.922c-8.13,0-15.276,3.681-19.323,9.205a24.972,24.972,0,0,1,14.9-4.78c12.59,0,22.832,8.819,22.832,19.659v9.011h4.425V481.581C627.249,470.741,617.006,461.922,604.416,461.922Z" transform="translate(-340.922 -228.795)" fill="#3f3d56"/>
    <path id="Path_400" data-name="Path 400" d="M628.976,499.5h-53.1V483.877c0-12.6,11.909-22.858,26.548-22.858s26.548,10.254,26.548,22.858ZM577.6,497.784h49.666V483.877c0-11.659-11.14-21.143-24.833-21.143S577.6,472.218,577.6,483.877Z" transform="translate(-339.609 -228.666)" fill="#fff"/>
    <path id="Path_401" data-name="Path 401" d="M617.411,494.526h-27.2a4.62,4.62,0,0,1-4.615-4.615v-6.217c0-8.668,8.17-15.72,18.213-15.72s18.213,7.052,18.213,15.72v6.217a4.62,4.62,0,0,1-4.614,4.615Zm-13.6-24.837c-9.1,0-16.5,6.282-16.5,14.005v6.217a2.9,2.9,0,0,0,2.9,2.9h27.2a2.9,2.9,0,0,0,2.9-2.9v-6.217c0-7.723-7.4-14.005-16.5-14.005Z" transform="translate(-340.994 -229.657)" fill="#fff"/>
  </g>
</svg>
