<svg xmlns="http://www.w3.org/2000/svg" width="440.88" height="442" viewBox="0 0 440.88 442">
  <g id="undraw_online_payments_re_y8f2" transform="translate(-189.619 -8.564)">
    <path id="Path_245" data-name="Path 245" d="M246.381,582.557c-3.467-35.393-24.425-70.724-57.771-83.081a163.852,163.852,0,0,1-2.94,112.457c-5.535,13.85-13.133,28.678-8.637,42.9,2.8,8.849,10.024,15.752,18.189,20.163s17.3,6.65,26.313,8.846l1.746,1.523C238.524,653.234,249.848,617.951,246.381,582.557Z" transform="translate(361.944 -237.478)" fill="#f0f0f0"/>
    <path id="Path_246" data-name="Path 246" d="M205.444,499.917a140.049,140.049,0,0,1,32.75,79.7,60.311,60.311,0,0,1-1.178,18.86A34.592,34.592,0,0,1,228,614.291c-3.987,4.158-8.547,7.949-11.455,13a21.18,21.18,0,0,0-1.485,17.258c2.266,7.087,6.943,12.938,11.715,18.5,5.3,6.176,10.9,12.507,13.012,20.566.256.977,1.756.523,1.5-.453-3.672-14.022-16.976-22.279-23.092-34.982-2.854-5.927-3.939-12.751-.959-18.851,2.605-5.335,7.3-9.248,11.378-13.423a36.911,36.911,0,0,0,9.394-15.134,55.756,55.756,0,0,0,1.9-18.745,135.874,135.874,0,0,0-8.844-41.535,142.533,142.533,0,0,0-24.55-41.726c-.65-.768-1.714.385-1.067,1.148Z" transform="translate(344.757 -237.261)" fill="#fff"/>
    <path id="Path_247" data-name="Path 247" d="M189.063,584.542a21.012,21.012,0,0,0,16.562-21.586.784.784,0,0,0-1.567.037,19.456,19.456,0,0,1-15.448,20.048c-.987.208-.529,1.707.452,1.5Z" transform="translate(393.714 -251.677)" fill="#fff"/>
    <path id="Path_248" data-name="Path 248" d="M238,638.661a40.5,40.5,0,0,1-17.471-23.788c-.259-.976-1.76-.522-1.5.452a42.125,42.125,0,0,0,18.23,24.716c.855.538,1.592-.846.741-1.381Z" transform="translate(337.058 -263.472)" fill="#fff"/>
    <path id="Path_249" data-name="Path 249" d="M238.917,534.7a11.893,11.893,0,0,1-11.252-.866c-.848-.549-1.584.836-.741,1.381a13.328,13.328,0,0,0,12.446.985.81.81,0,0,0,.524-.977.788.788,0,0,0-.977-.524Z" transform="translate(329.665 -245.225)" fill="#fff"/>
    <path id="Path_250" data-name="Path 250" d="M205.409,576.543c.52.358,1.04.715,1.56,1.086a156.626,156.626,0,0,1,19.613,16.153c.478.449.956.912,1.42,1.374a165.126,165.126,0,0,1,34.57,50.009,160.346,160.346,0,0,1,8.188,22.948c2.96,10.836,5.307,22.82,11.491,31.781a27.505,27.505,0,0,0,2.073,2.7l57.961,1.511c.133-.063.267-.112.4-.175L345,704.1c-.082-.412-.177-.838-.259-1.251-.047-.239-.106-.479-.153-.719-.035-.16-.071-.319-.094-.466-.012-.053-.024-.106-.036-.147-.023-.146-.059-.279-.082-.412q-.78-3.573-1.613-7.148c0-.013,0-.013-.012-.027-4.278-18.148-10.108-36.1-18.478-52.593-.252-.5-.5-1.005-.781-1.5a153.018,153.018,0,0,0-13.2-21.2,135.266,135.266,0,0,0-8.737-10.536,112.489,112.489,0,0,0-27.591-21.813c-20.5-11.518-44.46-16.351-66.851-10.225C206.542,576.215,205.982,576.372,205.409,576.543Z" transform="translate(240.945 -254.206)" fill="#f0f0f0"/>
    <path id="Path_251" data-name="Path 251" d="M206.365,577.958A140.049,140.049,0,0,1,280.5,621.877a60.311,60.311,0,0,1,10.414,15.767,34.591,34.591,0,0,1,2.32,18.056c-.68,5.72-2.039,11.493-1.317,17.279a21.18,21.18,0,0,0,9.2,14.673c6.076,4.295,13.333,6.15,20.492,7.718,7.949,1.741,16.234,3.423,22.771,8.587.792.626,1.717-.64.926-1.265-11.375-8.985-26.968-7.568-39.5-14.028-5.847-3.014-10.822-7.809-12.116-14.474-1.132-5.828.264-11.782,1-17.568a36.911,36.911,0,0,0-1.611-17.74,55.756,55.756,0,0,0-9.77-16.11,135.871,135.871,0,0,0-32.068-27.839A142.534,142.534,0,0,0,206.526,576.4c-.981-.221-1.136,1.339-.161,1.559Z" transform="translate(240.1 -254.882)" fill="#fff"/>
    <path id="Path_252" data-name="Path 252" d="M292.279,617.485a21.012,21.012,0,0,0,.228-27.207c-.649-.772-1.879.2-1.229.973a19.457,19.457,0,0,1-.264,25.308c-.663.76.606,1.681,1.265.926Z" transform="translate(222.466 -257.964)" fill="#fff"/>
    <path id="Path_253" data-name="Path 253" d="M300.827,672.687a40.5,40.5,0,0,1-28.271-8.474c-.794-.623-1.719.643-.926,1.265a42.125,42.125,0,0,0,29.437,8.759C302.074,674.15,301.828,672.6,300.827,672.687Z" transform="translate(233.234 -274.723)" fill="#fff"/>
    <path id="Path_254" data-name="Path 254" d="M354.183,591.7a11.894,11.894,0,0,1-9.506,6.083c-1.007.073-.761,1.621.24,1.549a13.328,13.328,0,0,0,10.531-6.707.81.81,0,0,0-.169-1.1.788.788,0,0,0-1.1.169Z" transform="translate(123.103 -258.278)" fill="#fff"/>
    <path id="Path_261" data-name="Path 261" d="M563.976,333.193s10.339,43.652-2.3,43.652-42.5-49.4-42.5-49.4l10.339-12.636,18.557,25.763.972-13.127Z" transform="translate(-224.77 -195.685)" fill="#a0616a"/>
    <ellipse id="Ellipse_32" data-name="Ellipse 32" cx="10.058" cy="10.058" rx="10.058" ry="10.058" transform="translate(287.103 113.547)" fill="#a0616a"/>
    <path id="Path_262" data-name="Path 262" d="M384.928,550.942H371.541l-6.37-51.64h19.76Z" transform="translate(-36.956 -116.128)" fill="#a0616a"/>
    <path id="Path_263" data-name="Path 263" d="M553.553,734.388h-41.17v-.521a16.025,16.025,0,0,1,16.023-16.024h0l7.52-5.705,14.031,5.706h3.594Z" transform="translate(-205.109 -285.607)" fill="#2f2e41"/>
    <path id="Path_264" data-name="Path 264" d="M219.776,530.942,207.8,536.92l-28.759-43.361,17.68-8.823Z" transform="translate(272.206 -112.831)" fill="#a0616a"/>
    <path id="Path_265" data-name="Path 265" d="M357.009,712.805l-36.837,18.384-.232-.466a16.025,16.025,0,0,1,7.182-21.494h0l4.181-8.463,15.1-1.16,3.216-1.6Z" transform="translate(141.632 -282.408)" fill="#2f2e41"/>
    <rect id="Rectangle_854" data-name="Rectangle 854" width="440.881" height="1.734" transform="translate(189.619 448.831)" fill="#ccc"/>
    <path id="Path_266" data-name="Path 266" d="M443.192,438.909s5.35,64.33,6.5,78.115a98.033,98.033,0,0,0,5.744,25.272,23.764,23.764,0,0,1,2.3,9.19l26.038,47.321s7.957,5.849,6.808,10.443,4.8,7.351,4.8,7.351l-27.42,5.285s1.149-3.446-2.3-4.595-6.189-11.112-6.189-11.112l-38.5-62.735L393.4,486.008s-16.082,51.693-19.529,57.437c0,0-12.636,64.329-14.934,70.073s-3.446,5.744-2.3,8.041,1.149,4.595,0,5.744-22.975,0-22.975,0l5.744-81.56L349.751,448.1l52.842-16.082Z" transform="translate(-8.664 -222.211)" fill="#2f2e41"/>
    <ellipse id="Ellipse_33" data-name="Ellipse 33" cx="24.123" cy="24.123" rx="24.123" ry="24.123" transform="translate(358.67 14.88)" fill="#a0616a"/>
    <path id="Path_267" data-name="Path 267" d="M399.6,279.233l28.717-17.4s.8-10.8,8.978-11.313c4.108-.255,10.272-.645,19.523-1.242,1.955-.126,3.274,10.57,5.515,10.425l30.313,8.041-4.595,78.114s6.892,31.016,4.595,36.759,5.744,8.041,3.446,9.19,0,9.19,0,9.19-44.8,22.975-94.2,5.744l4.595-14.934a12.054,12.054,0,0,1,2.3-11.487s-4.6-6.892,1.149-12.636c0,0-2.3-10.339,3.446-14.934l1.149-16.082-3.446-8.041Z" transform="translate(-60.812 -180.853)" fill="#e6e6e6"/>
    <path id="Path_268" data-name="Path 268" d="M482.022,216.126l.674-1.566c.087-.2,8.618-20.37,1.056-32.81-3.5-5.759-9.866-9.011-18.918-9.663-14.164-1.024-23.858,2.336-28.82,9.979a8.569,8.569,0,0,0,7.222,13.2h.19l2.6-3.379.151.329a5.377,5.377,0,0,0,5.641,2.91c.431-.031.813.341,1.12,1.137a2.023,2.023,0,0,0,1.514,1.4c1.873.365,4.542-1.994,5.737-3.17a1.917,1.917,0,0,0,.894,1.316c1.259.726,3.219-.223,3.781-.525,4.481.952,7.381.7,8.624-.756.842,5.96,2.65,16.688,4.818,17.283a1.084,1.084,0,0,0,1.183-.517c.522-.678.989-1.015,1.28-.921.705.224,1.122,2.547,1.181,4.046Z" transform="translate(-78.296 -163.342)" fill="#2f2e41"/>
    <path id="Path_269" data-name="Path 269" d="M527.331,288.935l-11.459-1.862a55.948,55.948,0,0,0-16.11,29.431c-3.446,18.38-4.595,21.826-4.595,21.826l27.57,6.892,14.934-28.718Z" transform="translate(-175.904 -189.406)" fill="#e6e6e6"/>
    <rect id="Rectangle_855" data-name="Rectangle 855" width="90.052" height="181.281" transform="matrix(-0.079, -0.997, 0.997, -0.079, 228.637, 227.466)" fill="#fff"/>
    <path id="Path_270" data-name="Path 270" d="M459.127,328.391c4.423-3.158,10.038-3.387,12.183-3.341-.654,2.043-2.688,7.282-7.11,10.441s-10.042,3.388-12.183,3.343C452.67,336.793,454.7,331.552,459.127,328.391Z" transform="translate(-76.16 -198)" fill="#1c6641"/>
    <path id="Path_271" data-name="Path 271" d="M449.709,402.528l29.018-2.289a6.549,6.549,0,0,1,1.03,13.058h0l-29.018,2.289a6.549,6.549,0,1,1-1.03-13.058Z" transform="translate(-84.19 -215.014)" fill="#1c6641"/>
    <path id="Path_272" data-name="Path 272" d="M441.977,323.759l162.7-12.835A14.454,14.454,0,0,1,620.218,324.2l6.257,79.264A14.463,14.463,0,0,1,613.2,419.015L450.5,431.851a14.454,14.454,0,0,1-15.544-13.276l-5.946-75.337-.12-1.539-.189-2.4a14.454,14.454,0,0,1,13.276-15.545Zm4.8,68.964,1.031,13.059a8.754,8.754,0,0,0,9.394,8.016l21.766-1.715a8.754,8.754,0,0,0,8.016-9.394l-1.031-13.059a8.758,8.758,0,0,0-9.394-8.016L454.8,383.332a8.765,8.765,0,0,0-8.023,9.391Zm169.539-6.809a8,8,0,0,0-8.6-7.343L578.7,380.862a8,8,0,0,0,1.245,15.955l.015,0,29.017-2.291a8,8,0,0,0,7.339-8.616Zm-6.212-64.588.2-.812-.835-.076c-.326-.035-8.045-.728-14.054,3.564s-7.851,11.823-7.931,12.137l-.191.814.833.084a21.99,21.99,0,0,0,3.551-.023,21,21,0,0,0,10.505-3.548c6.009-4.292,7.851-11.822,7.924-12.14Z" transform="translate(-213.297 -194.794)" fill="#1c6641"/>
    <path id="Path_273" data-name="Path 273" d="M616.028,427.639l9.431-.744a2.547,2.547,0,0,1,.4,5.078l-9.431.744a2.547,2.547,0,1,1-.4-5.078Z" transform="translate(-358.134 -221.049)" fill="#1c6641"/>
    <path id="Path_274" data-name="Path 274" d="M638.533,429.414l9.431-.744a2.547,2.547,0,0,1,.4,5.078l-9.431.744a2.547,2.547,0,0,1-.4-5.078Z" transform="translate(-398.05 -221.451)" fill="#1c6641"/>
    <path id="Path_275" data-name="Path 275" d="M616.694,419.2l9.431-.744a2.547,2.547,0,0,1,.4,5.078l-9.431.744a2.547,2.547,0,0,1-.4-5.078Z" transform="translate(-359.315 -219.139)" fill="#1c6641"/>
    <path id="Path_276" data-name="Path 276" d="M639.2,420.975l9.431-.744a2.547,2.547,0,1,1,.4,5.078l-9.431.744a2.547,2.547,0,1,1-.4-5.078Z" transform="translate(-399.23 -219.541)" fill="#1c6641"/>
    <path id="Path_277" data-name="Path 277" d="M617.36,410.761l9.431-.744a2.547,2.547,0,0,1,.4,5.078l-9.431.744a2.547,2.547,0,0,1-.4-5.078Z" transform="translate(-360.497 -217.229)" fill="#1c6641"/>
    <path id="Path_278" data-name="Path 278" d="M639.864,412.536l9.431-.744a2.547,2.547,0,1,1,.4,5.078l-9.431.744a2.547,2.547,0,1,1-.4-5.078Z" transform="translate(-400.411 -217.631)" fill="#1c6641"/>
    <rect id="Rectangle_856" data-name="Rectangle 856" width="1.548" height="191.573" transform="matrix(-0.078, -0.997, 0.997, -0.078, 218.477, 170.96)" fill="#fff"/>
    <path id="Path_279" data-name="Path 279" d="M436,192.137l.12,1.54,6.647-.521,70.817-5.563-.128-1.541-70.809,5.564Z" transform="translate(-220.406 -45.232)" fill="#3f3d56"/>
    <path id="Path_280" data-name="Path 280" d="M421.977,324.193s10.339,43.652-2.3,43.652-42.5-49.4-42.5-49.4l10.339-12.636,18.557,25.763.972-13.127Z" transform="translate(27.092 -193.648)" fill="#a0616a"/>
    <ellipse id="Ellipse_34" data-name="Ellipse 34" cx="10.058" cy="10.058" rx="10.058" ry="10.058" transform="translate(396.965 106.583)" fill="#a0616a"/>
    <path id="Path_281" data-name="Path 281" d="M378.293,280.04l6.892-6.892s13.785,8.041,14.934,16.082,6.892,33.313,6.892,33.313l-21.252,1.723-6.892-10.339Z" transform="translate(45.176 -186.255)" fill="#e6e6e6"/>
  </g>
</svg>
