<svg xmlns="http://www.w3.org/2000/svg" width="660.572" height="333.226" viewBox="0 0 660.572 333.226">
  <g id="undraw_personal_info_re_ur1n" transform="translate(0 0.246)">
    <path id="Path_282" data-name="Path 282" d="M842.138,541.742H339.879a24.245,24.245,0,0,1-24.218-24.218V326.939a24.245,24.245,0,0,1,24.218-24.218H842.138a24.246,24.246,0,0,1,24.218,24.218V517.524a24.245,24.245,0,0,1-24.218,24.218Z" transform="translate(-245.36 -270.905)" fill="#fff"/>
    <path id="Path_283" data-name="Path 283" d="M842.138,541.742H339.879a24.245,24.245,0,0,1-24.218-24.218V326.939a24.245,24.245,0,0,1,24.218-24.218H842.138a24.246,24.246,0,0,1,24.218,24.218V517.524a24.245,24.245,0,0,1-24.218,24.218ZM339.879,304.828a22.112,22.112,0,0,0-22.112,22.112V517.524a22.112,22.112,0,0,0,22.112,22.112H842.138a22.112,22.112,0,0,0,22.112-22.112v-71.86A140.836,140.836,0,0,0,723.415,304.828Z" transform="translate(-245.36 -270.905)" fill="#e6e6e6"/>
    <ellipse id="Ellipse_35" data-name="Ellipse 35" cx="2.583" cy="3.713" rx="2.583" ry="3.713" transform="matrix(0.144, -0.99, 0.99, 0.144, 47.057, 312.896)" fill="#fff"/>
    <ellipse id="Ellipse_36" data-name="Ellipse 36" cx="2.583" cy="3.713" rx="2.583" ry="3.713" transform="matrix(0.144, -0.99, 0.99, 0.144, 71.22, 310.538)" fill="#3f3d56"/>
    <ellipse id="Ellipse_37" data-name="Ellipse 37" cx="2.583" cy="3.713" rx="2.583" ry="3.713" transform="matrix(0.144, -0.99, 0.99, 0.144, 40.442, 293.335)" fill="#ff6584"/>
    <ellipse id="Ellipse_38" data-name="Ellipse 38" cx="2.347" cy="1.633" rx="2.347" ry="1.633" transform="matrix(0.008, -1, 1, 0.008, 34.38, 286.158)" fill="#e6e6e6"/>
    <ellipse id="Ellipse_39" data-name="Ellipse 39" cx="2.347" cy="1.633" rx="2.347" ry="1.633" transform="matrix(0.008, -1, 1, 0.008, 30.819, 271.233)" fill="#3f3d56"/>
    <ellipse id="Ellipse_40" data-name="Ellipse 40" cx="2.347" cy="1.633" rx="2.347" ry="1.633" transform="matrix(0.008, -1, 1, 0.008, 58.507, 297.499)" fill="#e6e6e6"/>
    <ellipse id="Ellipse_41" data-name="Ellipse 41" cx="2.347" cy="1.633" rx="2.347" ry="1.633" transform="matrix(0.008, -1, 1, 0.008, 46.83, 303.329)" fill="#ff6584"/>
    <ellipse id="Ellipse_42" data-name="Ellipse 42" cx="2.347" cy="1.633" rx="2.347" ry="1.633" transform="matrix(0.008, -1, 1, 0.008, 63.084, 314.103)" fill="#3f3d56"/>
    <ellipse id="Ellipse_43" data-name="Ellipse 43" cx="3.293" cy="4.733" rx="3.293" ry="4.733" transform="translate(628.531 7.921) rotate(-75.779)" fill="#fff"/>
    <ellipse id="Ellipse_44" data-name="Ellipse 44" cx="3.293" cy="4.733" rx="3.293" ry="4.733" transform="translate(597.586 7.722) rotate(-75.779)" fill="#3f3d56"/>
    <ellipse id="Ellipse_45" data-name="Ellipse 45" cx="3.293" cy="4.733" rx="3.293" ry="4.733" transform="translate(634.338 33.595) rotate(-75.779)" fill="#ff6584"/>
    <ellipse id="Ellipse_46" data-name="Ellipse 46" cx="2.991" cy="2.081" rx="2.991" ry="2.081" transform="translate(647.069 44.919) rotate(-83.624)" fill="#e6e6e6"/>
    <ellipse id="Ellipse_47" data-name="Ellipse 47" cx="2.991" cy="2.081" rx="2.991" ry="2.081" transform="translate(649.614 64.31) rotate(-83.624)" fill="#3f3d56"/>
    <ellipse id="Ellipse_48" data-name="Ellipse 48" cx="2.991" cy="2.081" rx="2.991" ry="2.081" transform="translate(617.977 27.356) rotate(-83.624)" fill="#e6e6e6"/>
    <ellipse id="Ellipse_49" data-name="Ellipse 49" cx="2.991" cy="2.081" rx="2.991" ry="2.081" transform="translate(633.55 21.505) rotate(-83.624)" fill="#ff6584"/>
    <ellipse id="Ellipse_50" data-name="Ellipse 50" cx="2.991" cy="2.081" rx="2.991" ry="2.081" transform="translate(614.364 5.7) rotate(-83.624)" fill="#3f3d56"/>
    <path id="Path_284" data-name="Path 284" d="M520.879,421.937A77.071,77.071,0,0,1,501.1,473.6v.011a79.144,79.144,0,0,1-5.707,5.728,76.263,76.263,0,0,1-6.423,5.212q-2.338,1.706-4.8,3.222-2.922,1.816-6.012,3.359-2.29,1.153-4.675,2.148a77.682,77.682,0,0,1-47.257,4.1,74.155,74.155,0,0,1-7.75-2.211c-.979-.326-1.958-.684-2.927-1.063a76.346,76.346,0,0,1-16.584-8.9,77.37,77.37,0,1,1,121.911-63.261Z" transform="translate(-249.683 -274.489)" fill="#f2f2f2"/>
    <path id="Path_285" data-name="Path 285" d="M775.711,365.495H641.986a4.212,4.212,0,1,1,0-8.424H775.711a4.212,4.212,0,0,1,0,8.424Z" transform="translate(-272.95 -275.56)" fill="#1c6641"/>
    <path id="Path_286" data-name="Path 286" d="M775.711,427.681H641.986a4.212,4.212,0,1,1,0-8.424H775.711a4.212,4.212,0,0,1,0,8.424Z" transform="translate(-272.95 -280.887)" fill="#e6e6e6"/>
    <path id="Path_287" data-name="Path 287" d="M775.711,489.867H641.986a4.212,4.212,0,1,1,0-8.424H775.711a4.212,4.212,0,0,1,0,8.424Z" transform="translate(-272.95 -286.213)" fill="#e6e6e6"/>
    <path id="Path_288" data-name="Path 288" d="M420.707,619.3c-15.1-20.08-23.822-42.535-24.108-68.135a5.524,5.524,0,0,1,3.361-7.042l51.457-18.207a5.524,5.524,0,0,1,7.042,3.361l24.108,68.135a5.524,5.524,0,0,1-3.361,7.042L427.748,622.66a5.524,5.524,0,0,1-7.041-3.361Z" transform="translate(-252.265 -289.995)" fill="#e6e6e6"/>
    <path id="Path_289" data-name="Path 289" d="M417.868,597.826c-9.08-9.18-12.966-25.554-15.5-43.8a5.173,5.173,0,0,1,3.148-6.595l44.223-15.647a5.173,5.173,0,0,1,6.6,3.148l21.453,60.631a5.173,5.173,0,0,1-3.148,6.6l-27.4,9.694a23.043,23.043,0,0,1-29.376-14.021Z" transform="translate(-252.761 -290.5)" fill="#fff"/>
    <path id="Path_290" data-name="Path 290" d="M458.564,570.574l-34.449,12.3a2.195,2.195,0,0,1-1.476-4.134l34.449-12.3a2.195,2.195,0,0,1,1.476,4.134Z" transform="translate(-254.398 -293.483)" fill="#1c6641"/>
    <path id="Path_291" data-name="Path 291" d="M427.269,568.667l-7.579,2.705a2.195,2.195,0,0,1-1.476-4.134l7.579-2.705a2.195,2.195,0,0,1,1.476,4.134Z" transform="translate(-254.019 -293.319)" fill="#1c6641"/>
    <path id="Path_292" data-name="Path 292" d="M465.658,590.45l-34.449,12.3a2.195,2.195,0,0,1-1.476-4.134l34.449-12.3a2.195,2.195,0,0,1,1.476,4.134Z" transform="translate(-255.006 -295.185)" fill="#1c6641"/>
    <path id="Path_293" data-name="Path 293" d="M462.111,580.512l-34.449,12.3a2.195,2.195,0,0,1-1.476-4.134l34.449-12.3a2.195,2.195,0,0,1,1.476,4.134Z" transform="translate(-254.702 -294.334)" fill="#1c6641"/>
    <path id="Path_294" data-name="Path 294" d="M431.387,389.347c1.122,9.051,7.393,16.514,16.514,16.514a16.514,16.514,0,0,0,16.514-16.514c0-9.12-7.433-15.67-16.514-16.514C438.264,371.938,429.946,377.726,431.387,389.347Z" transform="translate(-255.258 -276.903)" fill="#2f2e41"/>
    <path id="Path_295" data-name="Path 295" d="M462.33,512.367a77.933,77.933,0,0,1-30.472-.811C436.607,508.935,451.012,510.546,462.33,512.367Z" transform="translate(-255.312 -288.675)" fill="#2f2e41"/>
    <path id="Path_296" data-name="Path 296" d="M394.593,542.544l7.932-19.17,6.25,3.472L405,546.347a6.945,6.945,0,1,1-10.408-3.8Z" transform="translate(-251.848 -289.805)" fill="#ffb6b6"/>
    <path id="Path_297" data-name="Path 297" d="M477.107,481.367v.011c-.284,6.676-.674,13.025-1,17.911a77.681,77.681,0,0,1-47.257,4.1,74.159,74.159,0,0,1-7.75-2.211,4.781,4.781,0,0,1,1.137-.537c3.791-1.285.042-2.453.074-3.675A58.98,58.98,0,0,1,425.249,482l-7.076,18.111-3.685,9.413s.126,8.129-2.211,5.644-2.18,5.56-2.18,5.56a7.326,7.326,0,0,0-1.853,1.916,1.625,1.625,0,0,0-.221,1.127v.011a1.407,1.407,0,0,0,.59.737c1.59,1.074-.7,3.917-1.706,5.044-.274.305-.453.484-.453.484l-9.719-.695v-.19c.042-1.148.305-7.192,1.811-8.634,1.653-1.59.842-4.107.842-4.107s4.317-3.822,1.421-6.928c-1.158-1.253-.642-8.676.779-18.279,3.106-21.185,10.551-52.985,13.773-52.532a17.873,17.873,0,0,1,12.751-13.625l10.5-2.885,1.874-7.4h14.784l2.569,4.865,10.772,4.865.137.063.337.147.126.4s-.011.011,0,.011l5.991,18.816C477.9,447.03,477.791,465.12,477.107,481.367Z" transform="translate(-252.304 -280.502)" fill="#1c6641"/>
    <path id="Path_298" data-name="Path 298" d="M511.23,527.117,501.22,508.945l6.616-2.71L520.7,521.367a6.945,6.945,0,1,1-9.472,5.75Z" transform="translate(-261.253 -288.337)" fill="#ffb6b6"/>
    <path id="Path_299" data-name="Path 299" d="M475.344,425.25c1.781,3.2,18.066,11.428,15.243,19.689,0,0,15.3,47.864,17.288,47.552s3.931,4.632,3.931,4.632-.422,3.227.819,1.886.944,2.174.944,2.174-.595,3.1.981,2.259-.5,5.094-.5,5.094l-9.468,4.458-1.8-2.678s-3.845-.732-2.036-1.312-1.7-2.532-1.7-2.532-3.672-2.5-3.161-6.629-9.53-12.259-9.53-12.259c-6.9-13.629-10.68-27.623-10.666-42.057Z" transform="translate(-259.037 -281.4)" fill="#1c6641"/>
    <circle id="Ellipse_51" data-name="Ellipse 51" cx="14.644" cy="14.644" r="14.644" transform="translate(179.824 100.651)" fill="#ffb6b6"/>
    <path id="Path_300" data-name="Path 300" d="M434.817,393.713c.464,3.182,3.176,7.622,2.541,7.622s-5.151-13.118-.635-13.973c3.276-.62,4.008-.076,7.069-1.4l-.432.406c2.026,1.474,4.846.565,7.158-.394s5.132-1.861,7.164-.394c1.277.921,1.816,2.521,2.61,3.881s2.261,2.655,3.773,2.236a2.987,2.987,0,0,0,1.905-2.953c-.006-1.258-1.644-2.454-1.092-3.582,1.634-3.344.165-5.623-3.4-7.2q-1.943-.3-3.887-.6a11.026,11.026,0,0,1,2.439-2.452,5.573,5.573,0,0,0-1.969-2.522,6.181,6.181,0,0,0-3.519-.508l-8.035.419a14.173,14.173,0,0,0-5.805,1.131c-2.21,1.137-3.658,3.353-4.713,5.608C433.629,384.1,434,388.181,434.817,393.713Z" transform="translate(-255.512 -276.823)" fill="#2f2e41"/>
    <path id="Path_301" data-name="Path 301" d="M814.786,385.089H594.564a.914.914,0,1,1,0-1.829H814.786a.914.914,0,1,1,0,1.829Z" transform="translate(-269.17 -277.804)" fill="#e6e6e6"/>
    <path id="Path_302" data-name="Path 302" d="M814.786,447.089H594.564a.914.914,0,1,1,0-1.829H814.786a.914.914,0,1,1,0,1.829Z" transform="translate(-269.17 -283.114)" fill="#e6e6e6"/>
    <path id="Path_303" data-name="Path 303" d="M814.786,509.089H594.564a.914.914,0,1,1,0-1.829H814.786a.914.914,0,1,1,0,1.829Z" transform="translate(-269.17 -288.425)" fill="#e6e6e6"/>
    <path id="Path_304" data-name="Path 304" d="M867.427,491.29a33.829,33.829,0,0,1-21.986-8.119c-2.044-1.75-4.222-4.791-6.473-9.04a20.674,20.674,0,0,1-.656-17.848A23.718,23.718,0,0,1,834.4,459.5l-.716.477-.041-.859c-.027-.559-.041-1.115-.041-1.655,0-3.178,2.4-6.4,1.3-9.342-4.673-12.382-19.494-24.688,1.986-43.852,1.987-1.773-.667-5.317-.667-8,0-26.285,37.15-71.76,47.68-47.67,12.985,29.709,35.357,26.531,45.267,32.668l.144.434-.424.171a25.552,25.552,0,0,1-6.789,1.806,32.374,32.374,0,0,0,7.57.634l.394-.014.1.383a47.888,47.888,0,0,1,1.421,11.588l0,.422a21.114,21.114,0,0,0,6.975,15.744,33.907,33.907,0,0,1,11.062,25.02c0,5.572-3.787,12.887-6.965,18.042a10.2,10.2,0,0,1-7.49,4.8,9.964,9.964,0,0,1-8.041-2.6,32.949,32.949,0,0,0,5.811,8.227l.434.447-.538.314a33.8,33.8,0,0,1-17.041,4.6h-.351a33,33,0,0,0-23.674,9.663A34.087,34.087,0,0,1,867.427,491.29Z" transform="translate(-289.034 -274.251)" fill="#e6e6e6"/>
    <path id="Path_305" data-name="Path 305" d="M858.445,552.211a.608.608,0,0,1-.6-.523,203.7,203.7,0,0,1-.284-42.71c2.1-22.412,8.844-54.694,29.045-81.206a.608.608,0,1,1,.968.738c-20.027,26.283-26.716,58.328-28.8,80.582a202.32,202.32,0,0,0,.277,42.425.609.609,0,0,1-.6.694Z" transform="translate(-291.691 -281.596)" fill="#3f3d56"/>
    <path id="Path_306" data-name="Path 306" d="M876.593,467.276a.608.608,0,0,1-.358-1.1,83.851,83.851,0,0,1,18.512-9.424c10.214-3.739,25.745-7.129,41.733-2.04a.608.608,0,0,1-.369,1.159c-15.661-4.984-30.911-1.65-40.946,2.024a82.476,82.476,0,0,0-18.215,9.265.606.606,0,0,1-.357.116Z" transform="translate(-293.353 -283.703)" fill="#3f3d56"/>
    <path id="Path_307" data-name="Path 307" d="M846.2,392.784a.608.608,0,0,1,1.072-.436A83.861,83.861,0,0,1,858,410.133c4.465,9.918,8.964,25.164,5.04,41.478a.608.608,0,1,1-1.183-.284c3.843-15.98-.58-30.949-4.967-40.694a82.477,82.477,0,0,0-10.553-17.5A.606.606,0,0,1,846.2,392.784Z" transform="translate(-290.802 -278.564)" fill="#3f3d56"/>
    <path id="Path_308" data-name="Path 308" d="M296.628,478.947a33,33,0,0,0-23.673-9.663H272.6a33.8,33.8,0,0,1-17.041-4.6l-.538-.314.434-.447a32.948,32.948,0,0,0,5.811-8.227,9.964,9.964,0,0,1-8.041,2.6,10.2,10.2,0,0,1-7.49-4.8c-3.177-5.155-6.965-12.47-6.965-18.042a33.907,33.907,0,0,1,11.062-25.021,21.115,21.115,0,0,0,6.975-15.744l0-.422a47.9,47.9,0,0,1,1.423-11.6l.094-.376.394.014a32.374,32.374,0,0,0,7.57-.634,25.553,25.553,0,0,1-6.789-1.806l-.424-.171.144-.434c9.911-6.136,32.282-2.959,45.267-32.668,10.529-24.09,47.68,21.385,47.68,47.67,0,2.682-2.654,6.227-.667,8,21.48,19.164,6.659,31.469,1.986,43.852-1.109,2.938,1.3,6.163,1.3,9.342,0,.539-.014,1.1-.041,1.655l-.041.859-.716-.477a23.722,23.722,0,0,1-3.918-3.213,20.674,20.674,0,0,1-.656,17.848c-2.251,4.249-4.429,7.29-6.473,9.04a33.8,33.8,0,0,1-46.31-2.225Z" transform="translate(-238.774 -274.08)" fill="#e6e6e6"/>
    <path id="Path_309" data-name="Path 309" d="M338.64,550.211a.608.608,0,0,0,.6-.523,203.7,203.7,0,0,0,.284-42.71c-2.1-22.412-8.844-54.694-29.045-81.206a.608.608,0,1,0-.968.738c20.027,26.283,26.716,58.328,28.8,80.582a202.323,202.323,0,0,1-.277,42.425.609.609,0,0,0,.6.694Z" transform="translate(-244.822 -281.425)" fill="#3f3d56"/>
    <path id="Path_310" data-name="Path 310" d="M317.7,465.277a.608.608,0,0,0,.358-1.1,83.854,83.854,0,0,0-18.512-9.424c-10.213-3.739-25.744-7.129-41.733-2.04a.608.608,0,0,0,.369,1.159c15.661-4.984,30.911-1.65,40.946,2.024a82.477,82.477,0,0,1,18.215,9.265.606.606,0,0,0,.357.116Z" transform="translate(-240.368 -283.532)" fill="#3f3d56"/>
    <path id="Path_311" data-name="Path 311" d="M352.085,390.785a.608.608,0,0,0-1.072-.436,83.855,83.855,0,0,0-10.732,17.785c-4.465,9.918-8.965,25.164-5.04,41.478a.608.608,0,1,0,1.183-.285c-3.843-15.98.58-30.949,4.967-40.694a82.477,82.477,0,0,1,10.553-17.5.606.606,0,0,0,.142-.347Z" transform="translate(-246.908 -278.392)" fill="#3f3d56"/>
  </g>
</svg>
