<svg xmlns="http://www.w3.org/2000/svg" width="607.12" height="346.856" viewBox="0 0 607.12 346.856">
  <g id="undraw_working_re_ddwy" transform="translate(0 0)">
    <path id="Path_312" data-name="Path 312" d="M328.25,394.766V297.288a5.249,5.249,0,0,1,10.5,0v97.478a5.249,5.249,0,1,1-10.5,0Z" transform="translate(-228.457 -237.056)" fill="#f0f0f0"/>
    <path id="Path_313" data-name="Path 313" d="M311.5,394.766V297.288a5.249,5.249,0,0,1,10.5,0v97.478a5.249,5.249,0,1,1-10.5,0Z" transform="translate(-224.266 -237.056)" fill="#f0f0f0"/>
    <path id="Path_314" data-name="Path 314" d="M294.75,394.766V297.288a5.249,5.249,0,0,1,10.5,0v97.478a5.249,5.249,0,1,1-10.5,0Z" transform="translate(-220.076 -237.056)" fill="#f0f0f0"/>
    <path id="Path_315" data-name="Path 315" d="M924.36,621.512a18.324,18.324,0,0,1-6.2-1.076l-.307-.111.141-.679c-3.563-7.2-2.318-17.061,3.189-25.17,5.006-7.372,12.619-12.731,19.335-17.459a5.224,5.224,0,0,1,8.134,5.271l-2.4,12.322c-1.733,8.89-3.8,17.3-9.91,22.55a18.674,18.674,0,0,1-11.979,4.352Z" transform="translate(-375.489 -308.11)" fill="#e6e6e6"/>
    <path id="Path_316" data-name="Path 316" d="M944.179,657.723a13.962,13.962,0,0,1-11.67-6.423l-.174-.271.415-.366c1.074-5.862,6.128-11.086,12.914-13.332,6.168-2.042,12.976-1.708,18.979-1.414h0a4.011,4.011,0,0,1,2.492,6.984l-6.754,6.1c-4.908,4.429-9.8,8.429-15.708,8.715Q944.425,657.724,944.179,657.723Z" transform="translate(-379.58 -323.028)" fill="#e6e6e6"/>
    <path id="Path_317" data-name="Path 317" d="M919.658,657.666c-1-7.427-2.023-14.95-1.323-22.457.621-6.667,2.611-13.179,6.662-18.518a30.382,30.382,0,0,1,7.731-7.162c.773-.5,1.485.754.715,1.25a29.147,29.147,0,0,0-11.331,13.977c-2.467,6.415-2.863,13.407-2.438,20.221.257,4.121.8,8.215,1.351,12.3a.753.753,0,0,1-.495.891.711.711,0,0,1-.871-.506Z" transform="translate(-376.02 -316.453)" fill="#f2f2f2"/>
    <path id="Path_318" data-name="Path 318" d="M916.385,671.981c4.8-8.684,10.369-18.336,20.319-21.42a22.2,22.2,0,0,1,8.547-.9c.907.08.681,1.51-.225,1.43a20.72,20.72,0,0,0-13.639,3.689,35.946,35.946,0,0,0-9.374,10.342c-1.552,2.417-2.943,4.936-4.334,7.451-.444.8-1.744.224-1.294-.59Z" transform="translate(-375.566 -326.498)" fill="#f2f2f2"/>
    <path id="Path_319" data-name="Path 319" d="M889.385,627.231l4.848.111L865,471.2l-4.848.913,7.632,40.506H843.2l7.632-40.506-4.847-.913L817,627.342l4.6-.111,15.238-80.871h37.305Zm-51.413-86.87,4.1-21.745h26.85l4.1,21.745Z" transform="translate(-350.727 -281.876)" fill="#cacaca"/>
    <path id="Path_320" data-name="Path 320" d="M631.25,414.327V363.049c0-1.522,2.355-2.761,5.249-2.761s5.249,1.239,5.249,2.761v51.278c0,1.523-2.355,2.761-5.249,2.761S631.25,415.849,631.25,414.327Z" transform="translate(-304.258 -254.129)" fill="#f0f0f0"/>
    <path id="Path_321" data-name="Path 321" d="M614.5,414.327V363.049c0-1.522,2.355-2.761,5.249-2.761S625,361.526,625,363.049v51.278c0,1.523-2.355,2.761-5.249,2.761S614.5,415.849,614.5,414.327Z" transform="translate(-300.067 -254.129)" fill="#f0f0f0"/>
    <path id="Path_322" data-name="Path 322" d="M597.75,414.327V363.049c0-1.522,2.355-2.761,5.249-2.761s5.249,1.239,5.249,2.761v51.278c0,1.523-2.355,2.761-5.249,2.761S597.75,415.849,597.75,414.327Z" transform="translate(-295.877 -254.129)" fill="#f0f0f0"/>
    <path id="Path_323" data-name="Path 323" d="M702.223,359.106a1.124,1.124,0,0,0-.492-.771l-39.571-26.123a2.965,2.965,0,0,0,1.42-1.244h0a3.008,3.008,0,0,0-1.1-4.1L659.236,325a3.008,3.008,0,0,0-4.1,1.1,2.955,2.955,0,0,0-.38,1.232L626.2,308.468a17.291,17.291,0,0,0-10.7-9.865v-8.314H605V298.6a17.252,17.252,0,0,0-12,16.43v2.25h10.5a6.749,6.749,0,0,0,13.5,0h10.5v-2.25a17.342,17.342,0,0,0-.3-3.214l72.261,47.7-30.017,36.494c-.233,0-.465,0-.7,0-2.395,0-4.715.057-6.926.154a2.968,2.968,0,0,0,.171-1.158,3.008,3.008,0,0,0-3.151-2.839l-3.744.2a3.008,3.008,0,0,0-2.839,3.151,2.948,2.948,0,0,0,.406,1.329c-6.62.7-10.911,1.674-10.911,2.167,0,.809,11.52.039,25.938,0a1.121,1.121,0,0,0,1.924.338l.278-.337c14.376.04,25.848.8,25.848,0,0-.761-10.2-2.653-23.414-2.957l29.668-36.07a1.125,1.125,0,0,0,.243-.882Z" transform="translate(-294.689 -236.618)" fill="#ccc"/>
    <path id="Path_324" data-name="Path 324" d="M624.878,618.5H532.487a7.051,7.051,0,0,1-7.042-7.043V459.827a6.3,6.3,0,0,0-6.293-6.292H303.039a6.3,6.3,0,0,0-6.293,6.292V611.455A7.051,7.051,0,0,1,289.7,618.5h-3.161a7.051,7.051,0,0,1-7.042-7.043V451.66a16.89,16.89,0,0,1,16.871-16.871H615.05a16.89,16.89,0,0,1,16.871,16.871V611.455a7.051,7.051,0,0,1-7.043,7.043Z" transform="translate(-216.261 -272.767)" fill="#e4e4e4"/>
    <rect id="Rectangle_857" data-name="Rectangle 857" width="105.726" height="4.499" transform="translate(309.559 201.387)" fill="#fff"/>
    <rect id="Rectangle_858" data-name="Rectangle 858" width="105.726" height="4.499" transform="translate(309.559 262.124)" fill="#fff"/>
    <path id="Path_325" data-name="Path 325" d="M478.534,428.292l-3.039-1.279L473.41,411.78H445.651l-2.259,15.171-2.719,1.359a.646.646,0,0,0,.289,1.223h37.321a.646.646,0,0,0,.251-1.241Z" transform="translate(-256.492 -267.011)" fill="#e6e6e6"/>
    <path id="Path_326" data-name="Path 326" d="M510.678,407.166H374.318a2.7,2.7,0,0,1-2.7-2.7V385.236H513.373v19.229a2.7,2.7,0,0,1-2.7,2.7Z" transform="translate(-239.307 -260.371)" fill="#ccc"/>
    <path id="Path_327" data-name="Path 327" d="M513.474,368.82H371.457V286.546a3.26,3.26,0,0,1,3.257-3.257h135.5a3.26,3.26,0,0,1,3.257,3.257Z" transform="translate(-239.266 -234.867)" fill="#3f3d56"/>
    <path id="Path_328" data-name="Path 328" d="M506.984,364.841H381.931a2.514,2.514,0,0,1-2.511-2.511V293.763a2.514,2.514,0,0,1,2.511-2.511H506.984a2.514,2.514,0,0,1,2.511,2.511V362.33a2.513,2.513,0,0,1-2.511,2.51Z" transform="translate(-241.258 -236.859)" fill="#fff"/>
    <path id="Path_329" data-name="Path 329" d="M734.107,301.722a8.267,8.267,0,0,1,9.442,8.459l27.418,10.553-12.422,8.875-24.132-11.382a8.312,8.312,0,0,1-.306-16.505Z" transform="translate(-328.193 -239.457)" fill="#9e616a"/>
    <path id="Path_330" data-name="Path 330" d="M843.746,294.841l4.638,8.433a24.216,24.216,0,0,1-8.22,13.655c-7.1,5.989-44.234,28.3-44.234,28.3l-46.878-23.534,8.2-10.9,36.8,12.334h0a120.547,120.547,0,0,1,48.112-27.814Z" transform="translate(-333.728 -237.757)" fill="#e4e4e4"/>
    <ellipse id="Ellipse_52" data-name="Ellipse 52" cx="36.585" cy="11.921" rx="36.585" ry="11.921" transform="translate(464.808 172.79)" fill="#cacaca"/>
    <path id="Path_331" data-name="Path 331" d="M555.976,433.281l-9.715-2.685L552,391.846l14.338,3.964Z" transform="translate(-136.657 -98.028)" fill="#9e616a"/>
    <path id="Path_332" data-name="Path 332" d="M743.761,673.171l-31.325-8.659.109-.4a12.65,12.65,0,0,1,15.562-8.822h0l19.132,5.289Z" transform="translate(-324.568 -327.815)" fill="#2f2e41"/>
    <path id="Path_333" data-name="Path 333" d="M518.577,433.4l-9.221-4.072,11.316-37.5,13.608,6.008Z" transform="translate(-127.425 -98.024)" fill="#9e616a"/>
    <path id="Path_334" data-name="Path 334" d="M704.769,672.267l-29.73-13.128.166-.376a12.65,12.65,0,0,1,16.681-6.462h0l18.158,8.018Z" transform="translate(-315.212 -326.911)" fill="#2f2e41"/>
    <path id="Path_335" data-name="Path 335" d="M859.217,417.675s4.887,15.141-25.1,34.29L795.5,490.446l-40.125,95.983-23.822-10.68,4.672-12.471,3.135-8.368,1.6-4.281,1.719-4.589,25.5-68.074,21.423-37.509.621-20.353,5.269-14.347L833.73,392.19Z" transform="translate(-329.351 -262.11)" fill="#2f2e41"/>
    <path id="Path_336" data-name="Path 336" d="M833.217,418.675s4.887,15.141-25.1,34.29L769.5,491.445l-40.125,95.983-23.822-10.68,4.672-12.471,3.135-8.368,1.6-4.281,1.719-4.589,25.5-68.074,7.173-12.559a228.755,228.755,0,0,1,34.227-45.6l7.032-7.269.75-11.247,16.361-9.1Z" transform="translate(-322.846 -262.36)" fill="#2f2e41"/>
    <path id="Path_337" data-name="Path 337" d="M837.954,318.863l12-25.494,20.936-2.856a70.3,70.3,0,0,1,12.056,50.1c-1.61,10.975-2.921,21.9-3,31.493-.021,2.552,2.212,3.692,2.249,6,.037,2.266-4.231,5.958-3,7.5a13.144,13.144,0,0,1,3,7.5c-1.486,3.536-46.457-15.622-65.358-12.779Z" transform="translate(-350.685 -236.674)" fill="#e4e4e4"/>
    <circle id="Ellipse_53" data-name="Ellipse 53" cx="18.937" cy="18.937" r="18.937" transform="matrix(0.511, -0.86, 0.86, 0.511, 474.773, 37.932)" fill="#9e616a"/>
    <path id="Path_338" data-name="Path 338" d="M869.844,243.24c-.036.5-.086,1.158-.144,1.9a9.89,9.89,0,0,0,1.649,5.759c1.059,1.792-.2,12.613-.2,12.613,31.019-21.622,6.51-43.345-3.078-41.414.2-2.75-7.619-1.66-7.619-1.66-2.979-4.64-9.509,1.519-9.509,1.519l1.26-2.12c-5.07,1.29-10.08,16.958-10.08,16.958C843.837,243.558,870.045,240.491,869.844,243.24Z" transform="translate(-357.01 -218.711)" fill="#2f2e41"/>
    <path id="Path_339" data-name="Path 339" d="M703.781,317.648a173.85,173.85,0,0,0,24.987-46.633,4.465,4.465,0,0,0-2.109-5.375L690.184,246.1a4.408,4.408,0,0,0-3.867-.157,4.483,4.483,0,0,0-2.554,2.993,106.2,106.2,0,0,1-23.3,43.477,4.481,4.481,0,0,0-1.078,3.785,4.408,4.408,0,0,0,2.272,3.132l36.476,19.545A4.465,4.465,0,0,0,703.781,317.648Z" transform="translate(-311.28 -225.43)" fill="#ccc"/>
    <path id="Path_340" data-name="Path 340" d="M702.331,316.817a1.348,1.348,0,0,1-1.683.348L664.172,297.62a1.293,1.293,0,0,1-.677-.931,1.368,1.368,0,0,1,.337-1.171,109.328,109.328,0,0,0,23.982-44.758,1.368,1.368,0,0,1,.787-.929,1.294,1.294,0,0,1,1.152.048l36.475,19.544a1.347,1.347,0,0,1,.643,1.6A170.733,170.733,0,0,1,702.331,316.817Z" transform="translate(-312.319 -226.468)" fill="#fff"/>
    <path id="Path_341" data-name="Path 341" d="M697.915,273.292l25.158,14.746c2.5,1.467,4.77-2.42,2.271-3.885l-25.159-14.746c-2.5-1.467-4.77,2.42-2.271,3.885Z" transform="translate(-320.664 -231.313)" fill="#1c6641"/>
    <path id="Path_342" data-name="Path 342" d="M691.915,284.292l25.159,14.746c2.5,1.467,4.77-2.42,2.271-3.885l-25.159-14.746c-2.5-1.467-4.77,2.42-2.271,3.885Z" transform="translate(-319.163 -234.064)" fill="#1c6641"/>
    <path id="Path_343" data-name="Path 343" d="M684.915,296.292l25.158,14.746c2.5,1.467,4.77-2.42,2.271-3.885l-25.159-14.746c-2.5-1.467-4.77,2.42-2.271,3.885Z" transform="translate(-317.411 -237.066)" fill="#1c6641"/>
    <path id="Path_344" data-name="Path 344" d="M677.915,306.292l25.159,14.746c2.5,1.467,4.77-2.42,2.271-3.885l-25.159-14.746c-2.5-1.467-4.77,2.42-2.271,3.885Z" transform="translate(-315.66 -239.568)" fill="#1c6641"/>
    <path id="Path_345" data-name="Path 345" d="M829.077,422.707l9.445,21.24a3.374,3.374,0,0,1-3.643,4.7,3.1,3.1,0,0,1-.651-.174,3.383,3.383,0,0,1-1.872-1.78l-9.445-21.239a3.374,3.374,0,1,1,6.166-2.742Z" transform="translate(-352.132 -269.243)" fill="#1c6641"/>
    <path id="Path_346" data-name="Path 346" d="M840.755,449.416l1.892,4.287.968,6.077a1.838,1.838,0,0,1-3.246,1.443l-3.916-4.872-1.865-4.193Z" transform="translate(-355.127 -276.426)" fill="#3f3d56"/>
    <path id="Path_347" data-name="Path 347" d="M820.2,414.785l1.354,8.5a1.839,1.839,0,0,0,2.563,1.391l1.342-.6,2.59,5.824a.75.75,0,0,0,1.37-.609l-2.59-5.824,1.342-.6a1.835,1.835,0,0,0,.684-2.835l-5.408-6.7a1.839,1.839,0,0,0-3.247,1.444Z" transform="translate(-351.522 -267.23)" fill="#3f3d56"/>
    <path id="Path_348" data-name="Path 348" d="M825.387,426.287a8.267,8.267,0,0,1,11-6.3l18.646-22.7,4.515,14.584-18.4,19.324a8.312,8.312,0,0,1-15.763-4.9Z" transform="translate(-352.79 -263.384)" fill="#9e616a"/>
    <path id="Path_349" data-name="Path 349" d="M854,400.249l-8.212-11.862,23.319-31.092-12.013-25.742.875-30.62,9.927-1.834.123.062a24.4,24.4,0,0,1,10.572,12.314c2.476,6.191,8,29.431,11.079,42.733a15.506,15.506,0,0,1-4.169,14.539Z" transform="translate(-357.928 -238.822)" fill="#e4e4e4"/>
    <path id="Path_350" data-name="Path 350" d="M527.138,354.342a11.04,11.04,0,0,0-.068,1.736l-42.045,30.589-11.551-5.112-9.993,16.424,19.569,11.037a8.387,8.387,0,0,0,9.981-1.305l42.317-41.333a11.005,11.005,0,1,0-8.21-12.035Z" transform="translate(-262.287 -250.231)" fill="#ffb6b6"/>
    <path id="Path_351" data-name="Path 351" d="M475.723,396.237l-12.261,20.431a4.718,4.718,0,0,1-7.039,1.218L438.064,402.81a13.1,13.1,0,0,1,13.55-22.43l21.872,9.072a4.718,4.718,0,0,1,2.236,6.785Z" transform="translate(-254.345 -258.683)" fill="#1c6641"/>
    <rect id="Rectangle_859" data-name="Rectangle 859" width="24.034" height="39.828" transform="translate(192.877 315.141) rotate(180)" fill="#cacaca"/>
    <rect id="Rectangle_860" data-name="Rectangle 860" width="5.494" height="69.708" transform="translate(188.589 300.934) rotate(-55.841)" fill="#cacaca"/>
    <rect id="Rectangle_861" data-name="Rectangle 861" width="69.708" height="5.494" transform="translate(112.366 335.531) rotate(-34.159)" fill="#cacaca"/>
    <circle id="Ellipse_54" data-name="Ellipse 54" cx="7.554" cy="7.554" r="7.554" transform="translate(240.258 330.249)" fill="#cacaca"/>
    <circle id="Ellipse_55" data-name="Ellipse 55" cx="7.554" cy="7.554" r="7.554" transform="translate(172.962 330.249)" fill="#cacaca"/>
    <circle id="Ellipse_56" data-name="Ellipse 56" cx="7.554" cy="7.554" r="7.554" transform="translate(106.354 330.249)" fill="#cacaca"/>
    <rect id="Rectangle_862" data-name="Rectangle 862" width="5.493" height="39.141" transform="translate(177.769 298.661)" fill="#cacaca"/>
    <rect id="Rectangle_863" data-name="Rectangle 863" width="10.3" height="52.875" transform="translate(186.01 293.167) rotate(180)" fill="#cacaca"/>
    <path id="Path_352" data-name="Path 352" d="M396.984,543.175v-12.36a8.593,8.593,0,0,1,8.584-8.584h46.008a8.593,8.593,0,0,1,8.583,8.583v12.36a8.593,8.593,0,0,1-8.584,8.584H405.567A8.593,8.593,0,0,1,396.984,543.175Z" transform="translate(-245.652 -294.643)" fill="#3f3d56"/>
    <path id="Path_353" data-name="Path 353" d="M312.641,433.119h12.723l6.054-33H312.639Z" transform="translate(-78.212 -100.097)" fill="#ffb8b8"/>
    <path id="Path_354" data-name="Path 354" d="M503.476,673.788l41.027,0v-.519A15.969,15.969,0,0,0,528.534,657.3H503.475Z" transform="translate(-272.292 -328.432)" fill="#2f2e41"/>
    <path id="Path_355" data-name="Path 355" d="M503.079,596.384,528.445,539.5a20.846,20.846,0,0,0-9.152-26.76l-55.02-29.5L439.165,481.1,416.006,479l-.167.283c-.214.361-5.193,8.962-1.827,18.393,2.553,7.154,9.194,12.741,19.739,16.608,24.612,9.025,53.044,16.738,64.125,19.634a3.581,3.581,0,0,1,2.295,1.826,3.631,3.631,0,0,1,.2,2.9l-23.566,52.946a4.67,4.67,0,0,0,3.954,6.258l17.609,1.282q.224.021.446.021A4.667,4.667,0,0,0,503.079,596.384Z" transform="translate(-249.62 -283.826)" fill="#2f2e41"/>
    <path id="Path_356" data-name="Path 356" d="M301.568,433.119h12.723l6.054-33H301.566Z" transform="translate(-75.442 -100.097)" fill="#ffb8b8"/>
    <path id="Path_357" data-name="Path 357" d="M492.4,673.788l41.027,0v-.519A15.969,15.969,0,0,0,517.461,657.3H492.4Z" transform="translate(-269.522 -328.432)" fill="#2f2e41"/>
    <path id="Path_358" data-name="Path 358" d="M492.353,600.631l25.366-56.883a20.846,20.846,0,0,0-9.152-26.76l-55.02-29.5-25.107-2.135-18.14-1.574,0-.249c-.214.361-5.193,8.962-1.827,18.393,2.553,7.154,4.005,12.741,14.549,16.608,24.612,9.025,53.044,16.738,64.126,19.634a3.582,3.582,0,0,1,2.295,1.826,3.631,3.631,0,0,1,.2,2.9l-23.566,52.946a4.67,4.67,0,0,0,3.954,6.258l17.609,1.282q.224.021.446.021a4.667,4.667,0,0,0,4.262-2.768Z" transform="translate(-248.235 -284.96)" fill="#2f2e41"/>
    <circle id="Ellipse_57" data-name="Ellipse 57" cx="25.491" cy="25.491" r="25.491" transform="translate(172.71 83.666) rotate(-76.623)" fill="#ffb8b8"/>
    <path id="Path_359" data-name="Path 359" d="M568.781,411.648a173.85,173.85,0,0,0,24.987-46.633,4.466,4.466,0,0,0-2.109-5.375L555.184,340.1a4.407,4.407,0,0,0-3.867-.157,4.483,4.483,0,0,0-2.554,2.993,106.2,106.2,0,0,1-23.3,43.477,4.481,4.481,0,0,0-1.078,3.785,4.407,4.407,0,0,0,2.272,3.132l36.476,19.545A4.465,4.465,0,0,0,568.781,411.648Z" transform="translate(-277.507 -248.945)" fill="#ccc"/>
    <path id="Path_360" data-name="Path 360" d="M567.331,410.817a1.348,1.348,0,0,1-1.683.348L529.172,391.62a1.293,1.293,0,0,1-.677-.931,1.368,1.368,0,0,1,.337-1.171,109.328,109.328,0,0,0,23.982-44.758,1.368,1.368,0,0,1,.787-.929,1.294,1.294,0,0,1,1.152.048l36.475,19.544a1.347,1.347,0,0,1,.643,1.6,170.736,170.736,0,0,1-24.539,45.8Z" transform="translate(-278.546 -249.984)" fill="#fff"/>
    <path id="Path_361" data-name="Path 361" d="M562.915,367.292l25.158,14.746c2.5,1.467,4.77-2.42,2.271-3.885l-25.159-14.746c-2.5-1.467-4.77,2.42-2.271,3.885Z" transform="translate(-286.891 -254.828)" fill="#ccc"/>
    <path id="Path_362" data-name="Path 362" d="M556.915,378.292l25.158,14.746c2.5,1.467,4.77-2.42,2.271-3.885l-25.159-14.746c-2.5-1.467-4.77,2.42-2.271,3.885Z" transform="translate(-285.39 -257.58)" fill="#ccc"/>
    <path id="Path_363" data-name="Path 363" d="M552.26,389.6l22.88,13.583c2.276,1.351,4.711-1.443,2.438-2.792L554.7,386.811C552.422,385.459,549.987,388.253,552.26,389.6Z" transform="translate(-284.269 -260.674)" fill="#ccc"/>
    <path id="Path_364" data-name="Path 364" d="M542.915,400.292l25.159,14.746c2.5,1.467,4.77-2.42,2.271-3.885l-25.159-14.746c-2.5-1.467-4.77,2.42-2.271,3.885Z" transform="translate(-281.887 -263.084)" fill="#ccc"/>
    <path id="Path_365" data-name="Path 365" d="M469.143,452.467l-50.444-.3-.014-.359c-.962-25.31,2.131-48.237,9.457-70.09.1-.818.215-1.692.325-2.55,1.251-9.777,2.245-17.54,11.542-20.431a6.61,6.61,0,0,1-1.314-3.55,6.459,6.459,0,0,1,1.608-4.724,6.211,6.211,0,0,1,4.314-2.1l17.955-.611a4.2,4.2,0,0,1,2.607.884,7.167,7.167,0,0,1,2.087,9.056c-.211.421-.292.613-.323.7.638,3.344,2.532,7.317,4.536,11.521,2.87,6.019,6.122,12.841,6.958,20.139a36.838,36.838,0,0,1-.556,11.809,23.274,23.274,0,0,0-.256,6.338c.164,3.136.319,6.1-1.454,8.959-.452.776-.969,1.6-1.575,2.52l-2.493,5.96Z" transform="translate(-251.038 -250.992)" fill="#1c6641"/>
    <path id="Path_366" data-name="Path 366" d="M385.079,496.027V392.953a12.683,12.683,0,0,1,12.668-12.669h3.5a12.683,12.683,0,0,1,12.668,12.668V496.027A12.683,12.683,0,0,1,401.251,508.7h-3.5a12.683,12.683,0,0,1-12.669-12.668Z" transform="translate(-242.673 -259.132)" fill="#3f3d56"/>
    <path id="Path_367" data-name="Path 367" d="M539.76,409.161a11.032,11.032,0,0,0-.974,1.439l-51.857,3.786-7.112-10.439-17.157,8.674,10.795,19.7a8.387,8.387,0,0,0,9.166,4.16l57.759-12.769a11.005,11.005,0,1,0-.62-14.555Z" transform="translate(-262.082 -265.051)" fill="#ffb6b6"/>
    <path id="Path_368" data-name="Path 368" d="M480.4,407.13l-21.2,10.881a4.718,4.718,0,0,1-6.622-2.681l-7.634-22.5a13.1,13.1,0,0,1,5.7-17.572c-9.4,4.823,10.174-8.878,17.644,5.675l13.788,19.251a4.718,4.718,0,0,1-1.682,6.943Z" transform="translate(-257.295 -257.564)" fill="#1c6641"/>
    <path id="Path_369" data-name="Path 369" d="M445.2,319.715a8.648,8.648,0,0,1-5.136-2.238,32.627,32.627,0,0,1-9.947-38.26c1.388-3.315,3.983-7.821,8.467-10.461,3.223-1.9,7.01-2.583,10.306-3.076,2.854-.428,5.743-.768,8.588-1.011,3.4-.291,7.326-.487,10.907.874A27.444,27.444,0,0,1,475.4,270c.753.593,1.531,1.207,2.311,1.776a17.019,17.019,0,0,0,6.394,3.105,3.5,3.5,0,0,1,2.344,1.717,3.564,3.564,0,0,1,.25,2.946c-.337.945-.641,1.8-.026,2.719A2.429,2.429,0,0,0,488.7,283.3a1.257,1.257,0,0,1,1.064.555,1.282,1.282,0,0,1,.139,1.192l-.1.254a1.635,1.635,0,0,1,1.275.83,1.676,1.676,0,0,1-.308,2.075,16.8,16.8,0,0,1-8.186,4.284,16.361,16.361,0,0,1-6.373-.015l-.338-.066.042-.375c-8.506-3.034-16.184,2.115-20.562,8l-.632-.4a1.814,1.814,0,0,0,.08-1.422,2.205,2.205,0,0,0-1.091-1.29,2.855,2.855,0,0,0-3.108.62,4.238,4.238,0,0,0-1.162,3.214,11.5,11.5,0,0,0,.938,3.6c.206.546.419,1.112.592,1.681a13.73,13.73,0,0,1-.725,9.774,6.571,6.571,0,0,1-3.806,3.725A4.552,4.552,0,0,1,445.2,319.715Z" transform="translate(-253.307 -230.156)" fill="#2f2e41"/>
    <path id="Path_370" data-name="Path 370" d="M801.392,680.693H196.055a.893.893,0,0,1,0-1.786H801.39a.893.893,0,0,1,0,1.786Z" transform="translate(-195.162 -333.838)" fill="#cacaca"/>
  </g>
</svg>
