<svg xmlns="http://www.w3.org/2000/svg" width="407.559" height="491" viewBox="0 0 407.559 491"><g transform="translate(0.003 0)"><path d="M308.843,423.138a19.939,19.939,0,0,0,30.2,4.8L400.5,463.189l-2.29-36.75L340.2,398.6a20.047,20.047,0,0,0-31.353,24.541Z" transform="translate(-305.93 -188.299)" fill="#ffb8b8"/><path d="M553.453,630.272c-18.233,25.519-17.58,68.213-12.493,114.94h86.2l3.748-8.745,5,8.745h81.208s-6.247-118.688-17.491-122.436S553.453,630.272,553.453,630.272Z" transform="translate(-372.592 -254.212)" fill="#2f2e41"/><circle cx="43.727" cy="43.727" r="43.727" transform="translate(210.845 21.987)" fill="#ffb8b8"/><path d="M648.233,275.368l8.551,16.39,59.145,26.366L700.382,468.576l-6.544,15.58,3.535,13.53-8.523,9.985c8.556,7.741,9.642,15.845,4.988,24.228L666.6,538.138s-151.44,13.466-138.677-9.995c13.945-25.634,17.5-101.341-13.289-141.8-26.136-34.346-6.07-78.913-6.07-78.913l62-18.527,22.8-13.539Z" transform="translate(-362.056 -154.582)" fill="#3f3d56"/><path d="M662.6,107.525a2.412,2.412,0,0,1,2.321-1.377c-20.019-1.2-41.105,1.136-57.853,12.168-4.057,2.673-7.883,5.861-12.3,7.8a1.325,1.325,0,0,0-.27,2.254l.485.38a1.33,1.33,0,0,1-.433,2.318h0a1.33,1.33,0,0,0-.334,2.389l3.716,2.4a1.324,1.324,0,0,1,.012,2.227,6.605,6.605,0,0,1-.988.5,1.327,1.327,0,0,0-.421,2.229,13.21,13.21,0,0,1,3.6,5.256c1.239,3.221,1.461,6.728,1.67,10.173,1.28-4.97,6.7-7.9,11.827-8.193s10.12,1.393,15.106,2.608a83.566,83.566,0,0,0,33.169,1.276c-3.746,7.517-.586,16.483,2.594,24.256l10.292-4.411c14.135-7.979,4.289,25.773-1,30.406,10.79,3.741,39.03-37.777,29.945-53.526-4.726-8.192-1.371-18.758-10.662-26.528-4.554-4.794-13.645-2.663-18.288-6.647-1.827-1.568.958-5.763-1.553-6.678C672.4,108.506,662.737,107.219,662.6,107.525Z" transform="translate(-388.613 -105.865)" fill="#2f2e41"/><path d="M525.567,300.308c-8.024,35.622-28.6,118.8-49.482,136.19a12.18,12.18,0,0,1-4.646,2.743c-73.389,17.879-96.9-27.727-96.9-27.727S394.2,401.93,394.7,383.2L434.363,395.5,468.938,317.7l5.088-4.746.028-.028Z" transform="translate(-325.649 -161.75)" fill="#3f3d56"/><path d="M792.348,722.29a19.939,19.939,0,0,0-2.094-30.5l20.574-67.805-35.3,10.472L761.4,697.237a20.047,20.047,0,0,0,30.946,25.052Z" transform="translate(-435.952 -254.778)" fill="#ffb8b8"/><path d="M775.619,330.044l16.307,3.793s67.4,131.136,51.158,156.123-36.139,107.712-36.139,107.712-29.428-5.85-40.673-20.843l20.591-98.113-21.239-82.457Z" transform="translate(-438.053 -170.297)" fill="#3f3d56"/><path d="M345.51,511.649l.586-211.2a16.142,16.142,0,0,1,16.168-16.079l159.5.442a16.142,16.142,0,0,1,16.079,16.168l-.586,211.2a16.142,16.142,0,0,1-16.168,16.079l-159.5-.442a16.142,16.142,0,0,1-16.079-16.168Z" transform="translate(-317.307 -157.169)" fill="#e6e6e6"/><path d="M362.928,453.007l.376-135.781a15.117,15.117,0,0,1,15.142-15.058l137.081.38a15.118,15.118,0,0,1,15.059,15.142l-.521,187.942a15.118,15.118,0,0,1-15.143,15.059L430,520.456A67.338,67.338,0,0,1,362.928,453.007Z" transform="translate(-322.313 -162.285)" fill="#fff"/><path d="M509.335,380.695H402.447a6.413,6.413,0,1,1,0-12.827H509.335a6.413,6.413,0,0,1,0,12.827Z" transform="translate(-331.828 -181.168)" fill="#1c6641"/><path d="M425.963,339.195H402.447a6.413,6.413,0,1,1,0-12.827h23.515a6.413,6.413,0,1,1,0,12.827Z" transform="translate(-331.828 -169.24)" fill="#1c6641"/><path d="M509.335,422.195H402.447a6.413,6.413,0,1,1,0-12.827H509.335a6.413,6.413,0,0,1,0,12.827Z" transform="translate(-331.828 -193.095)" fill="#1c6641"/><path d="M509.335,463.695H402.447a6.413,6.413,0,0,1,0-12.827H509.335a6.413,6.413,0,0,1,0,12.827Z" transform="translate(-331.828 -205.023)" fill="#1c6641"/><circle cx="25.518" cy="25.518" r="25.518" transform="translate(143.34 285.557)" fill="#1c6641"/><path d="M534.059,550.331a2.838,2.838,0,0,1-2.271-1.136l-6.962-9.283a2.839,2.839,0,0,1,4.542-3.406l4.555,6.073,11.7-17.547a2.839,2.839,0,0,1,4.724,3.149l-13.924,20.886a2.84,2.84,0,0,1-2.283,1.263Z" transform="translate(-368.682 -225.975)" fill="#fff"/><circle cx="12.114" cy="12.114" r="12.114" transform="translate(102.33 53.803)" fill="#f2f2f2"/><circle cx="12.114" cy="12.114" r="12.114" transform="translate(58.149 402.258)" fill="#f2f2f2"/><circle cx="12.114" cy="12.114" r="12.114" transform="translate(336.771 100.833)" fill="#f2f2f2"/></g></svg>